<svg width="27" height="24" viewBox="0 0 27 24" fill="none" xmlns="http://www.w3.org/2000/svg">
  <path d="M11.7823 1.57193L22.6246 12.4142C23.6248 13.4144 24.1867 14.771 24.1867 16.1855C24.1867 17.6 23.6248 18.9565 22.6246 19.9567C21.6244 20.9569 20.2679 21.5188 18.8534 21.5188C17.4389 21.5188 16.0823 20.9569 15.0821 19.9567L3.29702 8.1716C2.6719 7.54648 2.32071 6.69863 2.32071 5.81458C2.32071 4.93052 2.6719 4.08267 3.29702 3.45755C3.92214 2.83243 4.76999 2.48124 5.65404 2.48124C6.5381 2.48124 7.38595 2.83243 8.01107 3.45755L17.9106 13.357C18.1606 13.6071 18.3011 13.9462 18.3011 14.2999C18.3011 14.6535 18.1606 14.9926 17.9106 15.2427C17.6605 15.4927 17.3214 15.6332 16.9678 15.6332C16.6141 15.6332 16.275 15.4927 16.0249 15.2427L7.06826 6.28598L5.65404 7.70019L14.6107 16.6569C15.2359 17.282 16.0837 17.6332 16.9678 17.6332C17.8518 17.6332 18.6997 17.282 19.3248 16.6569C19.9499 16.0318 20.3011 15.1839 20.3011 14.2999C20.3011 13.4158 19.9499 12.568 19.3248 11.9428L9.42528 2.04334C8.42509 1.04314 7.06853 0.481242 5.65404 0.481242C4.23956 0.481242 2.883 1.04314 1.88281 2.04334C0.882614 3.04353 0.320711 4.40009 0.320711 5.81458C0.320711 7.22906 0.882614 8.58562 1.88281 9.58581L13.6679 21.3709C15.0432 22.7462 16.9084 23.5188 18.8534 23.5188C20.7983 23.5188 22.6636 22.7462 24.0388 21.3709C25.4141 19.9957 26.1867 18.1304 26.1867 16.1855C26.1867 14.2406 25.4141 12.3753 24.0388 11L13.1965 0.157721L11.7823 1.57193Z" fill="#777777"/>
</svg>
